<svg xmlns="http://www.w3.org/2000/svg" viewBox="0 0 64 64" fill="none">
  <!-- Background circle - EU blue -->
  <circle cx="32" cy="32" r="30" fill="#003399"/>

  <!-- EU-style stars in circle (12 stars) -->
  <g fill="#FFCC00">
    <polygon points="32,8 33,11 36,11 34,13 35,16 32,14 29,16 30,13 28,11 31,11" transform="rotate(0 32 32)"/>
    <polygon points="32,8 33,11 36,11 34,13 35,16 32,14 29,16 30,13 28,11 31,11" transform="rotate(30 32 32)"/>
    <polygon points="32,8 33,11 36,11 34,13 35,16 32,14 29,16 30,13 28,11 31,11" transform="rotate(60 32 32)"/>
    <polygon points="32,8 33,11 36,11 34,13 35,16 32,14 29,16 30,13 28,11 31,11" transform="rotate(90 32 32)"/>
    <polygon points="32,8 33,11 36,11 34,13 35,16 32,14 29,16 30,13 28,11 31,11" transform="rotate(120 32 32)"/>
    <polygon points="32,8 33,11 36,11 34,13 35,16 32,14 29,16 30,13 28,11 31,11" transform="rotate(150 32 32)"/>
    <polygon points="32,8 33,11 36,11 34,13 35,16 32,14 29,16 30,13 28,11 31,11" transform="rotate(180 32 32)"/>
    <polygon points="32,8 33,11 36,11 34,13 35,16 32,14 29,16 30,13 28,11 31,11" transform="rotate(210 32 32)"/>
    <polygon points="32,8 33,11 36,11 34,13 35,16 32,14 29,16 30,13 28,11 31,11" transform="rotate(240 32 32)"/>
    <polygon points="32,8 33,11 36,11 34,13 35,16 32,14 29,16 30,13 28,11 31,11" transform="rotate(270 32 32)"/>
    <polygon points="32,8 33,11 36,11 34,13 35,16 32,14 29,16 30,13 28,11 31,11" transform="rotate(300 32 32)"/>
    <polygon points="32,8 33,11 36,11 34,13 35,16 32,14 29,16 30,13 28,11 31,11" transform="rotate(330 32 32)"/>
  </g>

  <!-- AI Brain/Circuit icon in center -->
  <circle cx="32" cy="32" r="10" fill="#FFFFFF" stroke="#FFCC00" stroke-width="1.5"/>
  <g stroke="#003399" stroke-width="1.5" fill="none">
    <circle cx="32" cy="32" r="4"/>
    <line x1="32" y1="22" x2="32" y2="28"/>
    <line x1="32" y1="36" x2="32" y2="42"/>
    <line x1="22" y1="32" x2="28" y2="32"/>
    <line x1="36" y1="32" x2="42" y2="32"/>
  </g>
  <circle cx="32" cy="32" r="2" fill="#003399"/>

  <!-- ALTAI text -->
  <text x="32" y="58" font-family="Arial, sans-serif" font-size="7" font-weight="bold" fill="#FFFFFF" text-anchor="middle">ALTAI</text>
</svg>
