<svg xmlns="http://www.w3.org/2000/svg" width="64" height="64" viewBox="0 0 64 64" fill="none">
  <rect width="64" height="64" rx="12" fill="#FFF3E0"/>
  <!-- Spreadsheet/document background -->
  <rect x="12" y="10" width="32" height="44" rx="3" fill="#FFCC80"/>
  <rect x="14" y="12" width="28" height="40" rx="2" fill="white"/>
  <!-- Table rows -->
  <rect x="16" y="16" width="24" height="6" rx="1" fill="#FFE0B2"/>
  <rect x="16" y="24" width="24" height="6" rx="1" fill="#FFE0B2"/>
  <rect x="16" y="32" width="24" height="6" rx="1" fill="#FFE0B2"/>
  <rect x="16" y="40" width="24" height="6" rx="1" fill="#FFE0B2"/>
  <!-- Column dividers -->
  <line x1="24" y1="16" x2="24" y2="46" stroke="#FFCC80" stroke-width="1"/>
  <line x1="32" y1="16" x2="32" y2="46" stroke="#FFCC80" stroke-width="1"/>
  <!-- Import arrow circle -->
  <circle cx="46" cy="42" r="14" fill="#E65100"/>
  <circle cx="46" cy="42" r="11" fill="#FF6D00"/>
  <!-- Upload arrow -->
  <path d="M46 48 L46 36" stroke="white" stroke-width="2.5" stroke-linecap="round"/>
  <path d="M41 41 L46 36 L51 41" stroke="white" stroke-width="2.5" stroke-linecap="round" stroke-linejoin="round"/>
  <!-- Small decorative element -->
  <circle cx="46" cy="42" r="13" stroke="#FF6D00" stroke-width="1" opacity="0.3"/>
</svg>
